<?xml version="1.0" encoding="UTF-8"?>
<!-- Created with Inkscape (http://www.inkscape.org/) -->
<svg width="512" height="512" version="1.1" viewBox="0 0 512 512" xmlns="http://www.w3.org/2000/svg">
 <g fill="#004b04">
  <g transform="translate(-.00026414 -.094856)">
   <path d="m258.55 6.0547c-118.91-0.14666-160.21-0.0071925-163.72 0.55469-15.083 2.4136-27.621 11.729-34.186 25.398-5.0355 10.486-4.6328-9.1858-4.6328 226.75 0 191.54 0.09164 211.29 1.0078 215.5 2.3968 11.014 10.318 21.591 19.967 26.668 5.8775 3.0925 9.0479 4.0837 15.025 4.6934 2.4105 0.24584 77.072 0.41385 165.91 0.37305 0 0 158.72 0.48503 161.53-0.0742s4.6672-1.2568 4.6672-1.2568c17.298-5.4884 28.97-19.159 31.323-36.202 0.49924-3.6118 0.64094-63.679 0.50781-213.98l-0.18554-208.96-1.4707-4.5078c-5.2971-16.237-16.485-27.74-32.338-33.248l-4.3828-1.5234z" fill="#fff" fill-opacity=".50196" stroke-width=".63495"/>
  </g>
  <g transform="translate(-.00015614 -.00041407)">
   <path d="m258.55 6.0547c-118.91-0.14666-160.21-0.0071925-163.72 0.55469-15.083 2.4136-27.621 11.729-34.186 25.398-5.0355 10.486-4.6328-9.1858-4.6328 226.75 0 191.54 0.09164 211.29 1.0078 215.5 2.3968 11.014 10.318 21.591 19.967 26.668 5.8775 3.0925 9.0479 4.0837 15.025 4.6934 2.4105 0.24584 77.072 0.41385 165.91 0.37305 0 0 158.72 0.48503 161.53-0.0742s4.6672-1.2568 4.6672-1.2568c17.298-5.4884 28.97-19.159 31.323-36.202 0.49924-3.6118 0.64094-63.679 0.50781-213.98l-0.18554-208.96-1.4707-4.5078c-5.2971-16.237-16.485-27.74-32.338-33.248l-4.3828-1.5234zm-153.71 24.986h152.01c165.77 0 155.68-0.22072 161.96 3.5645 3.8794 2.3382 8.9114 8.0913 10.818 12.371 1.3466 3.0223 1.7464 5.1708 2.1719 11.67 0.28682 4.3811 0.4437 85.517 0.3496 180.3l-0.16992 172.33-1.459 4.1562c-2.7737 7.904-8.2758 14.139-15.502 17.566l-3.0742 1.459-307.1 0.33203v-201.88zm329.95 418.42-4e-3 4.0918c-7e-3 5.6977-1.0672 11.827-2.5703 14.857-1.967 3.9655-4.7397 8.1928-8.6237 10.155 0 0-2.9866 1.4105-4.7669 1.6169s-163.72 0.11133-163.72 0.11133c-179.21 0.12223-166.11 2.623-170.2-1.3263-4.9076-4.7429-4.5827-13.451 0.3348-16.879 1.7139-1.1946 5.8664-1.233 166.11-1.5469 157.33-0.3082 164.49-0.37209 167.79-1.5039 4.3079-1.4791 10.667-5.0727 13.498-7.6289z" fill="#004b04" stroke-width=".63495"/>
  </g>
  <g transform="translate(-15.711 24.147)">
   <path d="m154.34 34.782c-0.84641 0-5.2322 9.2287-6.7428 14.188-2.9997 9.8486-3.4775 13.782-3.4856 28.715-8e-3 14.826 0.64018 21.149 3.4879 34.036 8.2285 37.236 26.96 71.743 59.617 109.83 6.665 7.7726 15.433 17.808 15.571 17.808s9.2807-10.281 16.38-18.24c7.099-7.9585 20.652-23.329 26.181-29.549l10.053-11.31-7.9141-9.4426c-10.882-13.326-66.227-80.335-77.762-94.15-6.8808-8.2402-17.556-21.035-23.722-28.432-6.1662-7.3975-11.415-13.45-11.663-13.45zm205.65 1.3939c-1.2408 0.06412-3.4897 0.23992-4.5578 1.0122-5.578 4.0332-15.676 16.74-32.493 35.923-27.57 31.451-30.845 35.418-33.322 40.368-8.8263 17.644-9.6932 41.222-2.1985 59.796 2.4773 6.1395-39.774 53.877-111.03 132.54-24.314 26.84-25.072 27.838-27.431 36.035-4.909 17.056 2.6638 34.808 17.204 40.329 4.1406 1.5721 11.92 1.3722 16.432-0.42165 7.468-2.9693 14.378-13.734 24.975-27.324 9.3194-11.951 100.22-156.31 108.63-153.87 8.2919 1.552 9.7895 2.4256 18.279 3.6046 10.905 1.5145 19.342-3.74 26.845-10.199 2.1612-1.8607 7.0365-6.1597 31.687-36.407 28.366-34.807 28.01-34.835 30.346-40.979 4.0604-10.679-2.3732-13.39-3.4021-13.759-2.6841-0.96093-4.8394 0.42495-6.8634 2.7221-2.3216 2.635 4.2733-4.272-38.497 45.123-19.043 21.993-19.848 21.282-24.86 16.743-2.4035-2.1763-3.159-4.5164-1.8309-7.5044 0.55341-1.2452 5.9383-7.7606 11.966-14.478 11.775-13.122 37.074-41.57 43.089-48.453 4.0356-4.6179 4.876-6.9972 3.7964-10.75-1.2432-4.321-6.0206-7.3795-9.6022-6.1464-0.76308 0.26272-14.479 15.423-30.479 33.69-19.922 22.745-29.613 33.354-30.746 33.658-3.7592 1.0082-8.1901-4.0523-7.2622-8.2932 0.44483-2.0331 0.10956-1.6385 33.259-39.028 13.714-15.468 25.259-28.756 25.656-29.528 1.8078-3.519-5.9e-4 -9.723-3.2502-11.152-2.9432-1.294-3.9816-1.4733-5.6238-0.967-1.0275 0.31686-11.988 12.234-29.899 32.508-15.552 17.604-28.581 32.232-28.953 32.508-0.372 0.27518-1.5644 0.5053-2.6507 0.51075-2.9456 0.0157-5.4464-3.0964-5.4464-6.7782 0-2.7996 0.66802-2.2316 28.813-35.635 26.47-31.415 30.07-33.754 27.551-39.723-1.5582-3.6923-4.4051-5.8639-8.1276-5.6715zm-59.642 197.44-21.586 30.762 1.9724 3.2148c1.8772 3.0603 11.019 17.742 20.315 32.626 46.906 75.098 47.444 75.874 55.675 80.383 4.4531 2.4391 4.8108 2.5204 11.132 2.5033 6.076-0.0157 6.8098-0.16831 10.547-2.176 12.175-6.5406 18.355-21.657 14.962-36.6-1.9973-8.7958-4.5222-12.358-21.812-30.774-22.762-24.244-55.249-61.937-71.205-79.939z" fill="#004b04" stop-color="#000000"/>
  </g>
 </g>
</svg>
